<!--?xml version="1.0" standalone="no"?-->
              <svg id="sw-js-blob-svg" viewBox="0 0 100 100" xmlns="http://www.w3.org/2000/svg" version="1.1">
                    <defs> 
                        <linearGradient id="sw-gradient" x1="0" x2="1" y1="1" y2="0">
                            <stop id="stop1" stop-color="rgba(248, 117, 55, 1)" offset="0%"></stop>
                            <stop id="stop2" stop-color="rgba(255, 244.346, 47.66, 1)" offset="100%"></stop>
                        </linearGradient>
                    </defs>
                <path fill="url(#sw-gradient)" d="M25.1,-30C32.2,-24,37.2,-15.7,39.6,-6.3C42.1,3.1,41.9,13.6,37,20.7C32.1,27.8,22.4,31.5,13.2,33.6C4,35.8,-4.7,36.4,-13.3,34.3C-21.9,32.1,-30.2,27.2,-33.3,20.1C-36.3,13,-33.9,3.7,-32,-5.4C-30.2,-14.6,-28.7,-23.6,-23.5,-29.9C-18.2,-36.2,-9.1,-39.8,0,-39.8C9,-39.7,18.1,-36,25.1,-30Z" width="100%" height="100%" transform="translate(50 50)" stroke-width="0" style="transition: all 0.3s ease 0s;"></path>
              </svg>